<svg width="1948" height="1908" viewBox="0 0 1948 1908" fill="none"
    xmlns="http://www.w3.org/2000/svg">
    <path
        d="M130 65.1111C130 101.01 100.899 130.111 65 130.111C29.1015 130.111 0 101.01 0 65.1111C0 29.2126 29.1015 0.111084 65 0.111084C100.899 0.111084 130 29.2126 130 65.1111Z"
        fill="black" fill-opacity="0.015" />
    <path
        d="M389.714 65.1111C389.714 101.01 360.613 130.111 324.714 130.111C288.816 130.111 259.714 101.01 259.714 65.1111C259.714 29.2126 288.816 0.111084 324.714 0.111084C360.613 0.111084 389.714 29.2126 389.714 65.1111Z"
        fill="black" fill-opacity="0.015" />
    <path
        d="M649.429 65.1111C649.429 101.01 620.327 130.111 584.429 130.111C548.53 130.111 519.429 101.01 519.429 65.1111C519.429 29.2126 548.53 0.111084 584.429 0.111084C620.327 0.111084 649.429 29.2126 649.429 65.1111Z"
        fill="black" fill-opacity="0.015" />
    <path
        d="M909.143 65.1111C909.143 101.01 880.041 130.111 844.143 130.111C808.244 130.111 779.143 101.01 779.143 65.1111C779.143 29.2126 808.244 0.111084 844.143 0.111084C880.041 0.111084 909.143 29.2126 909.143 65.1111Z"
        fill="black" fill-opacity="0.015" />
    <path
        d="M1168.86 65.1111C1168.86 101.01 1139.76 130.111 1103.86 130.111C1067.96 130.111 1038.86 101.01 1038.86 65.1111C1038.86 29.2126 1067.96 0.111084 1103.86 0.111084C1139.76 0.111084 1168.86 29.2126 1168.86 65.1111Z"
        fill="black" fill-opacity="0.015" />
    <path
        d="M1428.57 65.1111C1428.57 101.01 1399.47 130.111 1363.57 130.111C1327.67 130.111 1298.57 101.01 1298.57 65.1111C1298.57 29.2126 1327.67 0.111084 1363.57 0.111084C1399.47 0.111084 1428.57 29.2126 1428.57 65.1111Z"
        fill="black" fill-opacity="0.015" />
    <path
        d="M1688.29 65.1111C1688.29 101.01 1659.18 130.111 1623.29 130.111C1587.39 130.111 1558.29 101.01 1558.29 65.1111C1558.29 29.2126 1587.39 0.111084 1623.29 0.111084C1659.18 0.111084 1688.29 29.2126 1688.29 65.1111Z"
        fill="black" fill-opacity="0.015" />
    <path
        d="M1948 65.1111C1948 101.01 1918.9 130.111 1883 130.111C1847.1 130.111 1818 101.01 1818 65.1111C1818 29.2126 1847.1 0.111084 1883 0.111084C1918.9 0.111084 1948 29.2126 1948 65.1111Z"
        fill="black" fill-opacity="0.015" />
    <path
        d="M130 287.333C130 323.232 100.899 352.333 65 352.333C29.1015 352.333 0 323.232 0 287.333C0 251.435 29.1015 222.333 65 222.333C100.899 222.333 130 251.435 130 287.333Z"
        fill="black" fill-opacity="0.015" />
    <path
        d="M389.714 287.333C389.714 323.232 360.613 352.333 324.714 352.333C288.816 352.333 259.714 323.232 259.714 287.333C259.714 251.435 288.816 222.333 324.714 222.333C360.613 222.333 389.714 251.435 389.714 287.333Z"
        fill="black" fill-opacity="0.015" />
    <path
        d="M649.429 287.333C649.429 323.232 620.327 352.333 584.429 352.333C548.53 352.333 519.429 323.232 519.429 287.333C519.429 251.435 548.53 222.333 584.429 222.333C620.327 222.333 649.429 251.435 649.429 287.333Z"
        fill="black" fill-opacity="0.015" />
    <path
        d="M909.143 287.333C909.143 323.232 880.041 352.333 844.143 352.333C808.244 352.333 779.143 323.232 779.143 287.333C779.143 251.435 808.244 222.333 844.143 222.333C880.041 222.333 909.143 251.435 909.143 287.333Z"
        fill="black" fill-opacity="0.015" />
    <path
        d="M1168.86 287.333C1168.86 323.232 1139.76 352.333 1103.86 352.333C1067.96 352.333 1038.86 323.232 1038.86 287.333C1038.86 251.435 1067.96 222.333 1103.86 222.333C1139.76 222.333 1168.86 251.435 1168.86 287.333Z"
        fill="black" fill-opacity="0.015" />
    <path
        d="M1428.57 287.333C1428.57 323.232 1399.47 352.333 1363.57 352.333C1327.67 352.333 1298.57 323.232 1298.57 287.333C1298.57 251.435 1327.67 222.333 1363.57 222.333C1399.47 222.333 1428.57 251.435 1428.57 287.333Z"
        fill="black" fill-opacity="0.015" />
    <path
        d="M1688.29 287.333C1688.29 323.232 1659.18 352.333 1623.29 352.333C1587.39 352.333 1558.29 323.232 1558.29 287.333C1558.29 251.435 1587.39 222.333 1623.29 222.333C1659.18 222.333 1688.29 251.435 1688.29 287.333Z"
        fill="black" fill-opacity="0.015" />
    <path
        d="M1948 287.333C1948 323.232 1918.9 352.333 1883 352.333C1847.1 352.333 1818 323.232 1818 287.333C1818 251.435 1847.1 222.333 1883 222.333C1918.9 222.333 1948 251.435 1948 287.333Z"
        fill="black" fill-opacity="0.015" />
    <path
        d="M130 509.556C130 545.454 100.899 574.556 65 574.556C29.1015 574.556 0 545.454 0 509.556C0 473.657 29.1015 444.556 65 444.556C100.899 444.556 130 473.657 130 509.556Z"
        fill="black" fill-opacity="0.015" />
    <path
        d="M389.714 509.556C389.714 545.454 360.613 574.556 324.714 574.556C288.816 574.556 259.714 545.454 259.714 509.556C259.714 473.657 288.816 444.556 324.714 444.556C360.613 444.556 389.714 473.657 389.714 509.556Z"
        fill="black" fill-opacity="0.015" />
    <path
        d="M649.429 509.556C649.429 545.454 620.327 574.556 584.429 574.556C548.53 574.556 519.429 545.454 519.429 509.556C519.429 473.657 548.53 444.556 584.429 444.556C620.327 444.556 649.429 473.657 649.429 509.556Z"
        fill="black" fill-opacity="0.015" />
    <path
        d="M909.143 509.556C909.143 545.454 880.041 574.556 844.143 574.556C808.244 574.556 779.143 545.454 779.143 509.556C779.143 473.657 808.244 444.556 844.143 444.556C880.041 444.556 909.143 473.657 909.143 509.556Z"
        fill="black" fill-opacity="0.015" />
    <path
        d="M1168.86 509.556C1168.86 545.454 1139.76 574.556 1103.86 574.556C1067.96 574.556 1038.86 545.454 1038.86 509.556C1038.86 473.657 1067.96 444.556 1103.86 444.556C1139.76 444.556 1168.86 473.657 1168.86 509.556Z"
        fill="black" fill-opacity="0.015" />
    <path
        d="M1428.57 509.556C1428.57 545.454 1399.47 574.556 1363.57 574.556C1327.67 574.556 1298.57 545.454 1298.57 509.556C1298.57 473.657 1327.67 444.556 1363.57 444.556C1399.47 444.556 1428.57 473.657 1428.57 509.556Z"
        fill="black" fill-opacity="0.015" />
    <path
        d="M1688.29 509.556C1688.29 545.454 1659.18 574.556 1623.29 574.556C1587.39 574.556 1558.29 545.454 1558.29 509.556C1558.29 473.657 1587.39 444.556 1623.29 444.556C1659.18 444.556 1688.29 473.657 1688.29 509.556Z"
        fill="black" fill-opacity="0.015" />
    <path
        d="M1948 509.556C1948 545.454 1918.9 574.556 1883 574.556C1847.1 574.556 1818 545.454 1818 509.556C1818 473.657 1847.1 444.556 1883 444.556C1918.9 444.556 1948 473.657 1948 509.556Z"
        fill="black" fill-opacity="0.015" />
    <path
        d="M130 731.778C130 767.676 100.899 796.778 65 796.778C29.1015 796.778 0 767.676 0 731.778C0 695.879 29.1015 666.778 65 666.778C100.899 666.778 130 695.879 130 731.778Z"
        fill="black" fill-opacity="0.015" />
    <path
        d="M389.714 731.778C389.714 767.676 360.613 796.778 324.714 796.778C288.816 796.778 259.714 767.676 259.714 731.778C259.714 695.879 288.816 666.778 324.714 666.778C360.613 666.778 389.714 695.879 389.714 731.778Z"
        fill="black" fill-opacity="0.015" />
    <path
        d="M649.429 731.778C649.429 767.676 620.327 796.778 584.429 796.778C548.53 796.778 519.429 767.676 519.429 731.778C519.429 695.879 548.53 666.778 584.429 666.778C620.327 666.778 649.429 695.879 649.429 731.778Z"
        fill="black" fill-opacity="0.015" />
    <path
        d="M909.143 731.778C909.143 767.676 880.041 796.778 844.143 796.778C808.244 796.778 779.143 767.676 779.143 731.778C779.143 695.879 808.244 666.778 844.143 666.778C880.041 666.778 909.143 695.879 909.143 731.778Z"
        fill="black" fill-opacity="0.015" />
    <path
        d="M1168.86 731.778C1168.86 767.676 1139.76 796.778 1103.86 796.778C1067.96 796.778 1038.86 767.676 1038.86 731.778C1038.86 695.879 1067.96 666.778 1103.86 666.778C1139.76 666.778 1168.86 695.879 1168.86 731.778Z"
        fill="black" fill-opacity="0.015" />
    <path
        d="M1428.57 731.778C1428.57 767.676 1399.47 796.778 1363.57 796.778C1327.67 796.778 1298.57 767.676 1298.57 731.778C1298.57 695.879 1327.67 666.778 1363.57 666.778C1399.47 666.778 1428.57 695.879 1428.57 731.778Z"
        fill="black" fill-opacity="0.015" />
    <path
        d="M1688.29 731.778C1688.29 767.676 1659.18 796.778 1623.29 796.778C1587.39 796.778 1558.29 767.676 1558.29 731.778C1558.29 695.879 1587.39 666.778 1623.29 666.778C1659.18 666.778 1688.29 695.879 1688.29 731.778Z"
        fill="black" fill-opacity="0.015" />
    <path
        d="M1948 731.778C1948 767.676 1918.9 796.778 1883 796.778C1847.1 796.778 1818 767.676 1818 731.778C1818 695.879 1847.1 666.778 1883 666.778C1918.9 666.778 1948 695.879 1948 731.778Z"
        fill="black" fill-opacity="0.015" />
    <path
        d="M130 954C130 989.899 100.899 1019 65 1019C29.1015 1019 0 989.899 0 954C0 918.101 29.1015 889 65 889C100.899 889 130 918.101 130 954Z"
        fill="black" fill-opacity="0.015" />
    <path
        d="M389.714 954C389.714 989.899 360.613 1019 324.714 1019C288.816 1019 259.714 989.899 259.714 954C259.714 918.101 288.816 889 324.714 889C360.613 889 389.714 918.101 389.714 954Z"
        fill="black" fill-opacity="0.015" />
    <path
        d="M649.429 954C649.429 989.899 620.327 1019 584.429 1019C548.53 1019 519.429 989.899 519.429 954C519.429 918.101 548.53 889 584.429 889C620.327 889 649.429 918.101 649.429 954Z"
        fill="black" fill-opacity="0.015" />
    <path
        d="M909.143 954C909.143 989.899 880.041 1019 844.143 1019C808.244 1019 779.143 989.899 779.143 954C779.143 918.101 808.244 889 844.143 889C880.041 889 909.143 918.101 909.143 954Z"
        fill="black" fill-opacity="0.015" />
    <path
        d="M1168.86 954C1168.86 989.899 1139.76 1019 1103.86 1019C1067.96 1019 1038.86 989.899 1038.86 954C1038.86 918.101 1067.96 889 1103.86 889C1139.76 889 1168.86 918.101 1168.86 954Z"
        fill="black" fill-opacity="0.015" />
    <path
        d="M1428.57 954C1428.57 989.899 1399.47 1019 1363.57 1019C1327.67 1019 1298.57 989.899 1298.57 954C1298.57 918.101 1327.67 889 1363.57 889C1399.47 889 1428.57 918.101 1428.57 954Z"
        fill="black" fill-opacity="0.015" />
    <path
        d="M1688.29 954C1688.29 989.899 1659.18 1019 1623.29 1019C1587.39 1019 1558.29 989.899 1558.29 954C1558.29 918.101 1587.39 889 1623.29 889C1659.18 889 1688.29 918.101 1688.29 954Z"
        fill="black" fill-opacity="0.015" />
    <path
        d="M1948 954C1948 989.899 1918.9 1019 1883 1019C1847.1 1019 1818 989.899 1818 954C1818 918.101 1847.1 889 1883 889C1918.9 889 1948 918.101 1948 954Z"
        fill="black" fill-opacity="0.015" />
    <path
        d="M130 1176.22C130 1212.12 100.899 1241.22 65 1241.22C29.1015 1241.22 0 1212.12 0 1176.22C0 1140.32 29.1015 1111.22 65 1111.22C100.899 1111.22 130 1140.32 130 1176.22Z"
        fill="black" fill-opacity="0.015" />
    <path
        d="M389.714 1176.22C389.714 1212.12 360.613 1241.22 324.714 1241.22C288.816 1241.22 259.714 1212.12 259.714 1176.22C259.714 1140.32 288.816 1111.22 324.714 1111.22C360.613 1111.22 389.714 1140.32 389.714 1176.22Z"
        fill="black" fill-opacity="0.015" />
    <path
        d="M649.429 1176.22C649.429 1212.12 620.327 1241.22 584.429 1241.22C548.53 1241.22 519.429 1212.12 519.429 1176.22C519.429 1140.32 548.53 1111.22 584.429 1111.22C620.327 1111.22 649.429 1140.32 649.429 1176.22Z"
        fill="black" fill-opacity="0.015" />
    <path
        d="M909.143 1176.22C909.143 1212.12 880.041 1241.22 844.143 1241.22C808.244 1241.22 779.143 1212.12 779.143 1176.22C779.143 1140.32 808.244 1111.22 844.143 1111.22C880.041 1111.22 909.143 1140.32 909.143 1176.22Z"
        fill="black" fill-opacity="0.015" />
    <path
        d="M1168.86 1176.22C1168.86 1212.12 1139.76 1241.22 1103.86 1241.22C1067.96 1241.22 1038.86 1212.12 1038.86 1176.22C1038.86 1140.32 1067.96 1111.22 1103.86 1111.22C1139.76 1111.22 1168.86 1140.32 1168.86 1176.22Z"
        fill="black" fill-opacity="0.015" />
    <path
        d="M1428.57 1176.22C1428.57 1212.12 1399.47 1241.22 1363.57 1241.22C1327.67 1241.22 1298.57 1212.12 1298.57 1176.22C1298.57 1140.32 1327.67 1111.22 1363.57 1111.22C1399.47 1111.22 1428.57 1140.32 1428.57 1176.22Z"
        fill="black" fill-opacity="0.015" />
    <path
        d="M1688.29 1176.22C1688.29 1212.12 1659.18 1241.22 1623.29 1241.22C1587.39 1241.22 1558.29 1212.12 1558.29 1176.22C1558.29 1140.32 1587.39 1111.22 1623.29 1111.22C1659.18 1111.22 1688.29 1140.32 1688.29 1176.22Z"
        fill="black" fill-opacity="0.015" />
    <path
        d="M1948 1176.22C1948 1212.12 1918.9 1241.22 1883 1241.22C1847.1 1241.22 1818 1212.12 1818 1176.22C1818 1140.32 1847.1 1111.22 1883 1111.22C1918.9 1111.22 1948 1140.32 1948 1176.22Z"
        fill="black" fill-opacity="0.015" />
    <path
        d="M130 1398.44C130 1434.34 100.899 1463.44 65 1463.44C29.1015 1463.44 0 1434.34 0 1398.44C0 1362.55 29.1015 1333.44 65 1333.44C100.899 1333.44 130 1362.55 130 1398.44Z"
        fill="black" fill-opacity="0.015" />
    <path
        d="M389.714 1398.44C389.714 1434.34 360.613 1463.44 324.714 1463.44C288.816 1463.44 259.714 1434.34 259.714 1398.44C259.714 1362.55 288.816 1333.44 324.714 1333.44C360.613 1333.44 389.714 1362.55 389.714 1398.44Z"
        fill="black" fill-opacity="0.015" />
    <path
        d="M649.429 1398.44C649.429 1434.34 620.327 1463.44 584.429 1463.44C548.53 1463.44 519.429 1434.34 519.429 1398.44C519.429 1362.55 548.53 1333.44 584.429 1333.44C620.327 1333.44 649.429 1362.55 649.429 1398.44Z"
        fill="black" fill-opacity="0.015" />
    <path
        d="M909.143 1398.44C909.143 1434.34 880.041 1463.44 844.143 1463.44C808.244 1463.44 779.143 1434.34 779.143 1398.44C779.143 1362.55 808.244 1333.44 844.143 1333.44C880.041 1333.44 909.143 1362.55 909.143 1398.44Z"
        fill="black" fill-opacity="0.015" />
    <path
        d="M1168.86 1398.44C1168.86 1434.34 1139.76 1463.44 1103.86 1463.44C1067.96 1463.44 1038.86 1434.34 1038.86 1398.44C1038.86 1362.55 1067.96 1333.44 1103.86 1333.44C1139.76 1333.44 1168.86 1362.55 1168.86 1398.44Z"
        fill="black" fill-opacity="0.015" />
    <path
        d="M1428.57 1398.44C1428.57 1434.34 1399.47 1463.44 1363.57 1463.44C1327.67 1463.44 1298.57 1434.34 1298.57 1398.44C1298.57 1362.55 1327.67 1333.44 1363.57 1333.44C1399.47 1333.44 1428.57 1362.55 1428.57 1398.44Z"
        fill="black" fill-opacity="0.015" />
    <path
        d="M1688.29 1398.44C1688.29 1434.34 1659.18 1463.44 1623.29 1463.44C1587.39 1463.44 1558.29 1434.34 1558.29 1398.44C1558.29 1362.55 1587.39 1333.44 1623.29 1333.44C1659.18 1333.44 1688.29 1362.55 1688.29 1398.44Z"
        fill="black" fill-opacity="0.015" />
    <path
        d="M1948 1398.44C1948 1434.34 1918.9 1463.44 1883 1463.44C1847.1 1463.44 1818 1434.34 1818 1398.44C1818 1362.55 1847.1 1333.44 1883 1333.44C1918.9 1333.44 1948 1362.55 1948 1398.44Z"
        fill="black" fill-opacity="0.015" />
    <path
        d="M130 1620.67C130 1656.57 100.899 1685.67 65 1685.67C29.1015 1685.67 0 1656.57 0 1620.67C0 1584.77 29.1015 1555.67 65 1555.67C100.899 1555.67 130 1584.77 130 1620.67Z"
        fill="black" fill-opacity="0.015" />
    <path
        d="M389.714 1620.67C389.714 1656.57 360.613 1685.67 324.714 1685.67C288.816 1685.67 259.714 1656.57 259.714 1620.67C259.714 1584.77 288.816 1555.67 324.714 1555.67C360.613 1555.67 389.714 1584.77 389.714 1620.67Z"
        fill="black" fill-opacity="0.015" />
    <path
        d="M649.429 1620.67C649.429 1656.57 620.327 1685.67 584.429 1685.67C548.53 1685.67 519.429 1656.57 519.429 1620.67C519.429 1584.77 548.53 1555.67 584.429 1555.67C620.327 1555.67 649.429 1584.77 649.429 1620.67Z"
        fill="black" fill-opacity="0.015" />
    <path
        d="M909.143 1620.67C909.143 1656.57 880.041 1685.67 844.143 1685.67C808.244 1685.67 779.143 1656.57 779.143 1620.67C779.143 1584.77 808.244 1555.67 844.143 1555.67C880.041 1555.67 909.143 1584.77 909.143 1620.67Z"
        fill="black" fill-opacity="0.015" />
    <path
        d="M1168.86 1620.67C1168.86 1656.57 1139.76 1685.67 1103.86 1685.67C1067.96 1685.67 1038.86 1656.57 1038.86 1620.67C1038.86 1584.77 1067.96 1555.67 1103.86 1555.67C1139.76 1555.67 1168.86 1584.77 1168.86 1620.67Z"
        fill="black" fill-opacity="0.015" />
    <path
        d="M1428.57 1620.67C1428.57 1656.57 1399.47 1685.67 1363.57 1685.67C1327.67 1685.67 1298.57 1656.57 1298.57 1620.67C1298.57 1584.77 1327.67 1555.67 1363.57 1555.67C1399.47 1555.67 1428.57 1584.77 1428.57 1620.67Z"
        fill="black" fill-opacity="0.015" />
    <path
        d="M1688.29 1620.67C1688.29 1656.57 1659.18 1685.67 1623.29 1685.67C1587.39 1685.67 1558.29 1656.57 1558.29 1620.67C1558.29 1584.77 1587.39 1555.67 1623.29 1555.67C1659.18 1555.67 1688.29 1584.77 1688.29 1620.67Z"
        fill="black" fill-opacity="0.015" />
    <path
        d="M1948 1620.67C1948 1656.57 1918.9 1685.67 1883 1685.67C1847.1 1685.67 1818 1656.57 1818 1620.67C1818 1584.77 1847.1 1555.67 1883 1555.67C1918.9 1555.67 1948 1584.77 1948 1620.67Z"
        fill="black" fill-opacity="0.015" />
    <path
        d="M130 1842.89C130 1878.79 100.899 1907.89 65 1907.89C29.1015 1907.89 0 1878.79 0 1842.89C0 1806.99 29.1015 1777.89 65 1777.89C100.899 1777.89 130 1806.99 130 1842.89Z"
        fill="black" fill-opacity="0.015" />
    <path
        d="M389.714 1842.89C389.714 1878.79 360.613 1907.89 324.714 1907.89C288.816 1907.89 259.714 1878.79 259.714 1842.89C259.714 1806.99 288.816 1777.89 324.714 1777.89C360.613 1777.89 389.714 1806.99 389.714 1842.89Z"
        fill="black" fill-opacity="0.015" />
    <path
        d="M649.429 1842.89C649.429 1878.79 620.327 1907.89 584.429 1907.89C548.53 1907.89 519.429 1878.79 519.429 1842.89C519.429 1806.99 548.53 1777.89 584.429 1777.89C620.327 1777.89 649.429 1806.99 649.429 1842.89Z"
        fill="black" fill-opacity="0.015" />
    <path
        d="M909.143 1842.89C909.143 1878.79 880.041 1907.89 844.143 1907.89C808.244 1907.89 779.143 1878.79 779.143 1842.89C779.143 1806.99 808.244 1777.89 844.143 1777.89C880.041 1777.89 909.143 1806.99 909.143 1842.89Z"
        fill="black" fill-opacity="0.015" />
    <path
        d="M1168.86 1842.89C1168.86 1878.79 1139.76 1907.89 1103.86 1907.89C1067.96 1907.89 1038.86 1878.79 1038.86 1842.89C1038.86 1806.99 1067.96 1777.89 1103.86 1777.89C1139.76 1777.89 1168.86 1806.99 1168.86 1842.89Z"
        fill="black" fill-opacity="0.015" />
    <path
        d="M1428.57 1842.89C1428.57 1878.79 1399.47 1907.89 1363.57 1907.89C1327.67 1907.89 1298.57 1878.79 1298.57 1842.89C1298.57 1806.99 1327.67 1777.89 1363.57 1777.89C1399.47 1777.89 1428.57 1806.99 1428.57 1842.89Z"
        fill="black" fill-opacity="0.015" />
    <path
        d="M1688.29 1842.89C1688.29 1878.79 1659.18 1907.89 1623.29 1907.89C1587.39 1907.89 1558.29 1878.79 1558.29 1842.89C1558.29 1806.99 1587.39 1777.89 1623.29 1777.89C1659.18 1777.89 1688.29 1806.99 1688.29 1842.89Z"
        fill="black" fill-opacity="0.015" />
    <path
        d="M1948 1842.89C1948 1878.79 1918.9 1907.89 1883 1907.89C1847.1 1907.89 1818 1878.79 1818 1842.89C1818 1806.99 1847.1 1777.89 1883 1777.89C1918.9 1777.89 1948 1806.99 1948 1842.89Z"
        fill="black" fill-opacity="0.015" />
</svg>
    