<svg width="1978" height="1938" viewBox="0 0 1978 1938" fill="none"
  xmlns="http://www.w3.org/2000/svg">
  <path
    d="M15 15.1111L80 80.1111M80 80.1111L145 145.111M80 80.1111L145 15.1111M80 80.1111L15 145.111M274.714 15.1111L339.714 80.1111M339.714 80.1111L404.714 145.111M339.714 80.1111L404.714 15.1111M339.714 80.1111L274.714 145.111M534.429 15.1111L599.429 80.1111M599.429 80.1111L664.429 145.111M599.429 80.1111L664.429 15.1111M599.429 80.1111L534.429 145.111M794.143 15.1111L859.143 80.1111M859.143 80.1111L924.143 145.111M859.143 80.1111L924.143 15.1111M859.143 80.1111L794.143 145.111M1053.86 15.1111L1118.86 80.1111M1118.86 80.1111L1183.86 145.111M1118.86 80.1111L1183.86 15.1111M1118.86 80.1111L1053.86 145.111M1313.57 15.1111L1378.57 80.1111M1378.57 80.1111L1443.57 145.111M1378.57 80.1111L1443.57 15.1111M1378.57 80.1111L1313.57 145.111M1573.29 15.1111L1638.29 80.1111M1638.29 80.1111L1703.29 145.111M1638.29 80.1111L1703.29 15.1111M1638.29 80.1111L1573.29 145.111M1833 15.1111L1898 80.1111M1898 80.1111L1963 145.111M1898 80.1111L1963 15.1111M1898 80.1111L1833 145.111M15 237.333L80 302.333M80 302.333L145 367.333M80 302.333L145 237.333M80 302.333L15 367.333M274.714 237.333L339.714 302.333M339.714 302.333L404.714 367.333M339.714 302.333L404.714 237.333M339.714 302.333L274.714 367.333M534.429 237.333L599.429 302.333M599.429 302.333L664.429 367.333M599.429 302.333L664.429 237.333M599.429 302.333L534.429 367.333M794.143 237.333L859.143 302.333M859.143 302.333L924.143 367.333M859.143 302.333L924.143 237.333M859.143 302.333L794.143 367.333M1053.86 237.333L1118.86 302.333M1118.86 302.333L1183.86 367.333M1118.86 302.333L1183.86 237.333M1118.86 302.333L1053.86 367.333M1313.57 237.333L1378.57 302.333M1378.57 302.333L1443.57 367.333M1378.57 302.333L1443.57 237.333M1378.57 302.333L1313.57 367.333M1573.29 237.333L1638.29 302.333M1638.29 302.333L1703.29 367.333M1638.29 302.333L1703.29 237.333M1638.29 302.333L1573.29 367.333M1833 237.333L1898 302.333M1898 302.333L1963 367.333M1898 302.333L1963 237.333M1898 302.333L1833 367.333M15 459.556L80 524.556M80 524.556L145 589.556M80 524.556L145 459.556M80 524.556L15 589.556M274.714 459.556L339.714 524.556M339.714 524.556L404.714 589.556M339.714 524.556L404.714 459.556M339.714 524.556L274.714 589.556M534.429 459.556L599.429 524.556M599.429 524.556L664.429 589.556M599.429 524.556L664.429 459.556M599.429 524.556L534.429 589.556M794.143 459.556L859.143 524.556M859.143 524.556L924.143 589.556M859.143 524.556L924.143 459.556M859.143 524.556L794.143 589.556M1053.86 459.556L1118.86 524.556M1118.86 524.556L1183.86 589.556M1118.86 524.556L1183.86 459.556M1118.86 524.556L1053.86 589.556M1313.57 459.556L1378.57 524.556M1378.57 524.556L1443.57 589.556M1378.57 524.556L1443.57 459.556M1378.57 524.556L1313.57 589.556M1573.29 459.556L1638.29 524.556M1638.29 524.556L1703.29 589.556M1638.29 524.556L1703.29 459.556M1638.29 524.556L1573.29 589.556M1833 459.556L1898 524.556M1898 524.556L1963 589.556M1898 524.556L1963 459.556M1898 524.556L1833 589.556M15 681.778L80 746.778M80 746.778L145 811.778M80 746.778L145 681.778M80 746.778L15 811.778M274.714 681.778L339.714 746.778M339.714 746.778L404.714 811.778M339.714 746.778L404.714 681.778M339.714 746.778L274.714 811.778M534.429 681.778L599.429 746.778M599.429 746.778L664.429 811.778M599.429 746.778L664.429 681.778M599.429 746.778L534.429 811.778M794.143 681.778L859.143 746.778M859.143 746.778L924.143 811.778M859.143 746.778L924.143 681.778M859.143 746.778L794.143 811.778M1053.86 681.778L1118.86 746.778M1118.86 746.778L1183.86 811.778M1118.86 746.778L1183.86 681.778M1118.86 746.778L1053.86 811.778M1313.57 681.778L1378.57 746.778M1378.57 746.778L1443.57 811.778M1378.57 746.778L1443.57 681.778M1378.57 746.778L1313.57 811.778M1573.29 681.778L1638.29 746.778M1638.29 746.778L1703.29 811.778M1638.29 746.778L1703.29 681.778M1638.29 746.778L1573.29 811.778M1833 681.778L1898 746.778M1898 746.778L1963 811.778M1898 746.778L1963 681.778M1898 746.778L1833 811.778M15 904L80 969M80 969L145 1034M80 969L145 904M80 969L15 1034M274.714 904L339.714 969M339.714 969L404.714 1034M339.714 969L404.714 904M339.714 969L274.714 1034M534.429 904L599.429 969M599.429 969L664.429 1034M599.429 969L664.429 904M599.429 969L534.429 1034M794.143 904L859.143 969M859.143 969L924.143 1034M859.143 969L924.143 904M859.143 969L794.143 1034M1053.86 904L1118.86 969M1118.86 969L1183.86 1034M1118.86 969L1183.86 904M1118.86 969L1053.86 1034M1313.57 904L1378.57 969M1378.57 969L1443.57 1034M1378.57 969L1443.57 904M1378.57 969L1313.57 1034M1573.29 904L1638.29 969M1638.29 969L1703.29 1034M1638.29 969L1703.29 904M1638.29 969L1573.29 1034M1833 904L1898 969M1898 969L1963 1034M1898 969L1963 904M1898 969L1833 1034M15 1126.22L80 1191.22M80 1191.22L145 1256.22M80 1191.22L145 1126.22M80 1191.22L15 1256.22M274.714 1126.22L339.714 1191.22M339.714 1191.22L404.714 1256.22M339.714 1191.22L404.714 1126.22M339.714 1191.22L274.714 1256.22M534.429 1126.22L599.429 1191.22M599.429 1191.22L664.429 1256.22M599.429 1191.22L664.429 1126.22M599.429 1191.22L534.429 1256.22M794.143 1126.22L859.143 1191.22M859.143 1191.22L924.143 1256.22M859.143 1191.22L924.143 1126.22M859.143 1191.22L794.143 1256.22M1053.86 1126.22L1118.86 1191.22M1118.86 1191.22L1183.86 1256.22M1118.86 1191.22L1183.86 1126.22M1118.86 1191.22L1053.86 1256.22M1313.57 1126.22L1378.57 1191.22M1378.57 1191.22L1443.57 1256.22M1378.57 1191.22L1443.57 1126.22M1378.57 1191.22L1313.57 1256.22M1573.29 1126.22L1638.29 1191.22M1638.29 1191.22L1703.29 1256.22M1638.29 1191.22L1703.29 1126.22M1638.29 1191.22L1573.29 1256.22M1833 1126.22L1898 1191.22M1898 1191.22L1963 1256.22M1898 1191.22L1963 1126.22M1898 1191.22L1833 1256.22M15 1348.44L80 1413.44M80 1413.44L145 1478.44M80 1413.44L145 1348.44M80 1413.44L15 1478.44M274.714 1348.44L339.714 1413.44M339.714 1413.44L404.714 1478.44M339.714 1413.44L404.714 1348.44M339.714 1413.44L274.714 1478.44M534.429 1348.44L599.429 1413.44M599.429 1413.44L664.429 1478.44M599.429 1413.44L664.429 1348.44M599.429 1413.44L534.429 1478.44M794.143 1348.44L859.143 1413.44M859.143 1413.44L924.143 1478.44M859.143 1413.44L924.143 1348.44M859.143 1413.44L794.143 1478.44M1053.86 1348.44L1118.86 1413.44M1118.86 1413.44L1183.86 1478.44M1118.86 1413.44L1183.86 1348.44M1118.86 1413.44L1053.86 1478.44M1313.57 1348.44L1378.57 1413.44M1378.57 1413.44L1443.57 1478.44M1378.57 1413.44L1443.57 1348.44M1378.57 1413.44L1313.57 1478.44M1573.29 1348.44L1638.29 1413.44M1638.29 1413.44L1703.29 1478.44M1638.29 1413.44L1703.29 1348.44M1638.29 1413.44L1573.29 1478.44M1833 1348.44L1898 1413.44M1898 1413.44L1963 1478.44M1898 1413.44L1963 1348.44M1898 1413.44L1833 1478.44M15 1570.67L80 1635.67M80 1635.67L145 1700.67M80 1635.67L145 1570.67M80 1635.67L15 1700.67M274.714 1570.67L339.714 1635.67M339.714 1635.67L404.714 1700.67M339.714 1635.67L404.714 1570.67M339.714 1635.67L274.714 1700.67M534.429 1570.67L599.429 1635.67M599.429 1635.67L664.429 1700.67M599.429 1635.67L664.429 1570.67M599.429 1635.67L534.429 1700.67M794.143 1570.67L859.143 1635.67M859.143 1635.67L924.143 1700.67M859.143 1635.67L924.143 1570.67M859.143 1635.67L794.143 1700.67M1053.86 1570.67L1118.86 1635.67M1118.86 1635.67L1183.86 1700.67M1118.86 1635.67L1183.86 1570.67M1118.86 1635.67L1053.86 1700.67M1313.57 1570.67L1378.57 1635.67M1378.57 1635.67L1443.57 1700.67M1378.57 1635.67L1443.57 1570.67M1378.57 1635.67L1313.57 1700.67M1573.29 1570.67L1638.29 1635.67M1638.29 1635.67L1703.29 1700.67M1638.29 1635.67L1703.29 1570.67M1638.29 1635.67L1573.29 1700.67M1833 1570.67L1898 1635.67M1898 1635.67L1963 1700.67M1898 1635.67L1963 1570.67M1898 1635.67L1833 1700.67M15 1792.89L80 1857.89M80 1857.89L145 1922.89M80 1857.89L145 1792.89M80 1857.89L15 1922.89M274.714 1792.89L339.714 1857.89M339.714 1857.89L404.714 1922.89M339.714 1857.89L404.714 1792.89M339.714 1857.89L274.714 1922.89M534.429 1792.89L599.429 1857.89M599.429 1857.89L664.429 1922.89M599.429 1857.89L664.429 1792.89M599.429 1857.89L534.429 1922.89M794.143 1792.89L859.143 1857.89M859.143 1857.89L924.143 1922.89M859.143 1857.89L924.143 1792.89M859.143 1857.89L794.143 1922.89M1053.86 1792.89L1118.86 1857.89M1118.86 1857.89L1183.86 1922.89M1118.86 1857.89L1183.86 1792.89M1118.86 1857.89L1053.86 1922.89M1313.57 1792.89L1378.57 1857.89M1378.57 1857.89L1443.57 1922.89M1378.57 1857.89L1443.57 1792.89M1378.57 1857.89L1313.57 1922.89M1573.29 1792.89L1638.29 1857.89M1638.29 1857.89L1703.29 1922.89M1638.29 1857.89L1703.29 1792.89M1638.29 1857.89L1573.29 1922.89M1833 1792.89L1898 1857.89M1898 1857.89L1963 1922.89M1898 1857.89L1963 1792.89M1898 1857.89L1833 1922.89"
    stroke="black" stroke-opacity="0.015" stroke-width="30" stroke-linecap="round" />
</svg>