<svg width="22" height="18" viewBox="0 0 22 18" fill="none" xmlns="http://www.w3.org/2000/svg">
  <path
    d="M10.5585 1.26238C10.6017 1.18399 10.6651 1.11862 10.7421 1.07309C10.8192 1.02756 10.907 1.00354 10.9965 1.00354C11.086 1.00354 11.1739 1.02756 11.2509 1.07309C11.3279 1.11862 11.3914 1.18399 11.4345 1.26238L14.3865 6.86638C14.4569 6.99615 14.5552 7.10871 14.6742 7.196C14.7933 7.28329 14.9302 7.34314 15.0751 7.37124C15.22 7.39935 15.3694 7.39502 15.5125 7.35856C15.6555 7.3221 15.7887 7.25443 15.9025 7.16038L20.1795 3.49638C20.2616 3.42961 20.3628 3.3906 20.4685 3.38499C20.5742 3.37937 20.6789 3.40743 20.7676 3.46513C20.8563 3.52283 20.9245 3.60719 20.9622 3.70607C20.9999 3.80496 21.0053 3.91326 20.9775 4.01538L18.1435 14.2614C18.0857 14.4711 17.961 14.6561 17.7885 14.7886C17.616 14.9211 17.405 14.9936 17.1875 14.9954H4.80652C4.58885 14.9939 4.37763 14.9214 4.20491 14.7889C4.03219 14.6564 3.90741 14.4712 3.84952 14.2614L1.01652 4.01638C0.988768 3.91426 0.994139 3.80596 1.03186 3.70707C1.06958 3.60819 1.1377 3.52383 1.22642 3.46613C1.31514 3.40843 1.41988 3.38037 1.52556 3.38599C1.63124 3.3916 1.73241 3.43061 1.81452 3.49738L6.09052 7.16138C6.20432 7.25543 6.33753 7.3231 6.48058 7.35956C6.62364 7.39602 6.77299 7.40035 6.91792 7.37224C7.06285 7.34414 7.19975 7.28429 7.31881 7.197C7.43787 7.10971 7.53612 6.99715 7.60652 6.86738L10.5585 1.26238Z"
    fill="#FFED47" />
  <path
    d="M10.5585 1.26238C10.6017 1.18399 10.6651 1.11862 10.7421 1.07309C10.8192 1.02756 10.907 1.00354 10.9965 1.00354C11.086 1.00354 11.1739 1.02756 11.2509 1.07309C11.3279 1.11862 11.3914 1.18399 11.4345 1.26238L14.3865 6.86638C14.4569 6.99615 14.5552 7.10871 14.6742 7.196C14.7933 7.28329 14.9302 7.34314 15.0751 7.37124C15.22 7.39935 15.3694 7.39502 15.5125 7.35856C15.6555 7.3221 15.7887 7.25443 15.9025 7.16038L20.1795 3.49638C20.2616 3.42961 20.3628 3.3906 20.4685 3.38499C20.5742 3.37937 20.6789 3.40743 20.7676 3.46513C20.8563 3.52283 20.9245 3.60719 20.9622 3.70607C20.9999 3.80496 21.0053 3.91326 20.9775 4.01538L18.1435 14.2614C18.0857 14.4711 17.961 14.6561 17.7885 14.7886C17.616 14.9211 17.405 14.9936 17.1875 14.9954H4.80652C4.58885 14.9939 4.37763 14.9214 4.20491 14.7889C4.03219 14.6564 3.90741 14.4712 3.84952 14.2614L1.01652 4.01638C0.988768 3.91426 0.994139 3.80596 1.03186 3.70707C1.06958 3.60819 1.1377 3.52383 1.22642 3.46613C1.31514 3.40843 1.41988 3.38037 1.52556 3.38599C1.63124 3.3916 1.73241 3.43061 1.81452 3.49738L6.09052 7.16138C6.20432 7.25543 6.33753 7.3231 6.48058 7.35956C6.62364 7.39602 6.77299 7.40035 6.91792 7.37224C7.06285 7.34414 7.19975 7.28429 7.31881 7.197C7.43787 7.10971 7.53612 6.99715 7.60652 6.86738L10.5585 1.26238Z"
    fill="black" fill-opacity="0.05" />
  <path d="M3.99652 16.9964H17.9965H3.99652Z" fill="#FFED47" />
  <path d="M3.99652 16.9964H17.9965H3.99652Z" fill="black" fill-opacity="0.05" />
  <path
    d="M3.99652 16.9964H17.9965M10.5585 1.26238C10.6017 1.18399 10.6651 1.11862 10.7421 1.07309C10.8192 1.02756 10.907 1.00354 10.9965 1.00354C11.086 1.00354 11.1739 1.02756 11.2509 1.07309C11.3279 1.11862 11.3914 1.18399 11.4345 1.26238L14.3865 6.86638C14.4569 6.99615 14.5552 7.10871 14.6742 7.196C14.7933 7.28329 14.9302 7.34314 15.0751 7.37124C15.22 7.39935 15.3694 7.39502 15.5125 7.35856C15.6555 7.3221 15.7887 7.25443 15.9025 7.16038L20.1795 3.49638C20.2616 3.42961 20.3628 3.3906 20.4685 3.38499C20.5742 3.37937 20.6789 3.40743 20.7676 3.46513C20.8563 3.52283 20.9245 3.60719 20.9622 3.70607C20.9999 3.80496 21.0053 3.91326 20.9775 4.01538L18.1435 14.2614C18.0857 14.4711 17.961 14.6561 17.7885 14.7886C17.616 14.9211 17.405 14.9936 17.1875 14.9954H4.80652C4.58885 14.9939 4.37763 14.9214 4.20491 14.7889C4.03219 14.6564 3.90741 14.4712 3.84952 14.2614L1.01652 4.01638C0.988768 3.91426 0.994139 3.80596 1.03186 3.70707C1.06958 3.60819 1.1377 3.52383 1.22642 3.46613C1.31514 3.40843 1.41988 3.38037 1.52556 3.38599C1.63124 3.3916 1.73241 3.43061 1.81452 3.49738L6.09052 7.16138C6.20432 7.25543 6.33753 7.3231 6.48058 7.35956C6.62364 7.39602 6.77299 7.40035 6.91792 7.37224C7.06285 7.34414 7.19975 7.28429 7.31881 7.197C7.43787 7.10971 7.53612 6.99715 7.60652 6.86738L10.5585 1.26238Z"
    stroke="#FFED47" stroke-linecap="round" stroke-linejoin="round" />
  <path
    d="M3.99652 16.9964H17.9965M10.5585 1.26238C10.6017 1.18399 10.6651 1.11862 10.7421 1.07309C10.8192 1.02756 10.907 1.00354 10.9965 1.00354C11.086 1.00354 11.1739 1.02756 11.2509 1.07309C11.3279 1.11862 11.3914 1.18399 11.4345 1.26238L14.3865 6.86638C14.4569 6.99615 14.5552 7.10871 14.6742 7.196C14.7933 7.28329 14.9302 7.34314 15.0751 7.37124C15.22 7.39935 15.3694 7.39502 15.5125 7.35856C15.6555 7.3221 15.7887 7.25443 15.9025 7.16038L20.1795 3.49638C20.2616 3.42961 20.3628 3.3906 20.4685 3.38499C20.5742 3.37937 20.6789 3.40743 20.7676 3.46513C20.8563 3.52283 20.9245 3.60719 20.9622 3.70607C20.9999 3.80496 21.0053 3.91326 20.9775 4.01538L18.1435 14.2614C18.0857 14.4711 17.961 14.6561 17.7885 14.7886C17.616 14.9211 17.405 14.9936 17.1875 14.9954H4.80652C4.58885 14.9939 4.37763 14.9214 4.20491 14.7889C4.03219 14.6564 3.90741 14.4712 3.84952 14.2614L1.01652 4.01638C0.988768 3.91426 0.994139 3.80596 1.03186 3.70707C1.06958 3.60819 1.1377 3.52383 1.22642 3.46613C1.31514 3.40843 1.41988 3.38037 1.52556 3.38599C1.63124 3.3916 1.73241 3.43061 1.81452 3.49738L6.09052 7.16138C6.20432 7.25543 6.33753 7.3231 6.48058 7.35956C6.62364 7.39602 6.77299 7.40035 6.91792 7.37224C7.06285 7.34414 7.19975 7.28429 7.31881 7.197C7.43787 7.10971 7.53612 6.99715 7.60652 6.86738L10.5585 1.26238Z"
    stroke="black" stroke-opacity="0.05" stroke-linecap="round" stroke-linejoin="round" />
</svg>