<svg width="22" height="18" viewBox="0 0 22 18" fill="none" xmlns="http://www.w3.org/2000/svg">
<path d="M10.5595 1.26238C10.6027 1.18399 10.6661 1.11862 10.7431 1.07309C10.8202 1.02756 10.908 1.00354 10.9975 1.00354C11.087 1.00354 11.1748 1.02756 11.2519 1.07309C11.3289 1.11862 11.3923 1.18399 11.4355 1.26238L14.3875 6.86638C14.4579 6.99615 14.5561 7.10871 14.6752 7.196C14.7943 7.28329 14.9312 7.34314 15.0761 7.37124C15.221 7.39935 15.3704 7.39502 15.5134 7.35856C15.6565 7.3221 15.7897 7.25443 15.9035 7.16038L20.1805 3.49638C20.2626 3.42961 20.3638 3.3906 20.4695 3.38499C20.5751 3.37937 20.6799 3.40743 20.7686 3.46513C20.8573 3.52283 20.9254 3.60719 20.9632 3.70607C21.0009 3.80496 21.0062 3.91326 20.9785 4.01538L18.1445 14.2614C18.0866 14.4711 17.962 14.6561 17.7895 14.7886C17.617 14.9211 17.406 14.9936 17.1885 14.9954H4.80749C4.58983 14.9939 4.3786 14.9214 4.20589 14.7889C4.03317 14.6564 3.90839 14.4712 3.85049 14.2614L1.01749 4.01638C0.989745 3.91426 0.995116 3.80596 1.03284 3.70707C1.07055 3.60819 1.13868 3.52383 1.2274 3.46613C1.31611 3.40843 1.42085 3.38037 1.52653 3.38599C1.63222 3.3916 1.73339 3.43061 1.81549 3.49738L6.09149 7.16138C6.20529 7.25543 6.3385 7.3231 6.48156 7.35956C6.62461 7.39602 6.77397 7.40035 6.91889 7.37224C7.06382 7.34414 7.20073 7.28429 7.31979 7.197C7.43884 7.10971 7.5371 6.99715 7.60749 6.86738L10.5595 1.26238Z" fill="#FFED47"/>
<path d="M10.5595 1.26238C10.6027 1.18399 10.6661 1.11862 10.7431 1.07309C10.8202 1.02756 10.908 1.00354 10.9975 1.00354C11.087 1.00354 11.1748 1.02756 11.2519 1.07309C11.3289 1.11862 11.3923 1.18399 11.4355 1.26238L14.3875 6.86638C14.4579 6.99615 14.5561 7.10871 14.6752 7.196C14.7943 7.28329 14.9312 7.34314 15.0761 7.37124C15.221 7.39935 15.3704 7.39502 15.5134 7.35856C15.6565 7.3221 15.7897 7.25443 15.9035 7.16038L20.1805 3.49638C20.2626 3.42961 20.3638 3.3906 20.4695 3.38499C20.5751 3.37937 20.6799 3.40743 20.7686 3.46513C20.8573 3.52283 20.9254 3.60719 20.9632 3.70607C21.0009 3.80496 21.0062 3.91326 20.9785 4.01538L18.1445 14.2614C18.0866 14.4711 17.962 14.6561 17.7895 14.7886C17.617 14.9211 17.406 14.9936 17.1885 14.9954H4.80749C4.58983 14.9939 4.3786 14.9214 4.20589 14.7889C4.03317 14.6564 3.90839 14.4712 3.85049 14.2614L1.01749 4.01638C0.989745 3.91426 0.995116 3.80596 1.03284 3.70707C1.07055 3.60819 1.13868 3.52383 1.2274 3.46613C1.31611 3.40843 1.42085 3.38037 1.52653 3.38599C1.63222 3.3916 1.73339 3.43061 1.81549 3.49738L6.09149 7.16138C6.20529 7.25543 6.3385 7.3231 6.48156 7.35956C6.62461 7.39602 6.77397 7.40035 6.91889 7.37224C7.06382 7.34414 7.20073 7.28429 7.31979 7.197C7.43884 7.10971 7.5371 6.99715 7.60749 6.86738L10.5595 1.26238Z" fill="black" fill-opacity="0.05"/>
<path d="M3.99749 16.9964H17.9975H3.99749Z" fill="#FFED47"/>
<path d="M3.99749 16.9964H17.9975H3.99749Z" fill="black" fill-opacity="0.05"/>
<path d="M3.99749 16.9964H17.9975M10.5595 1.26238C10.6027 1.18399 10.6661 1.11862 10.7431 1.07309C10.8202 1.02756 10.908 1.00354 10.9975 1.00354C11.087 1.00354 11.1748 1.02756 11.2519 1.07309C11.3289 1.11862 11.3923 1.18399 11.4355 1.26238L14.3875 6.86638C14.4579 6.99615 14.5561 7.10871 14.6752 7.196C14.7943 7.28329 14.9312 7.34314 15.0761 7.37124C15.221 7.39935 15.3704 7.39502 15.5134 7.35856C15.6565 7.3221 15.7897 7.25443 15.9035 7.16038L20.1805 3.49638C20.2626 3.42961 20.3638 3.3906 20.4695 3.38499C20.5751 3.37937 20.6799 3.40743 20.7686 3.46513C20.8573 3.52283 20.9254 3.60719 20.9632 3.70607C21.0009 3.80496 21.0062 3.91326 20.9785 4.01538L18.1445 14.2614C18.0866 14.4711 17.962 14.6561 17.7895 14.7886C17.617 14.9211 17.406 14.9936 17.1885 14.9954H4.80749C4.58983 14.9939 4.3786 14.9214 4.20589 14.7889C4.03317 14.6564 3.90839 14.4712 3.85049 14.2614L1.01749 4.01638C0.989745 3.91426 0.995116 3.80596 1.03284 3.70707C1.07055 3.60819 1.13868 3.52383 1.2274 3.46613C1.31611 3.40843 1.42085 3.38037 1.52653 3.38599C1.63222 3.3916 1.73339 3.43061 1.81549 3.49738L6.09149 7.16138C6.20529 7.25543 6.3385 7.3231 6.48156 7.35956C6.62461 7.39602 6.77397 7.40035 6.91889 7.37224C7.06382 7.34414 7.20073 7.28429 7.31979 7.197C7.43884 7.10971 7.5371 6.99715 7.60749 6.86738L10.5595 1.26238Z" stroke="#FFED47" stroke-linecap="round" stroke-linejoin="round"/>
<path d="M3.99749 16.9964H17.9975M10.5595 1.26238C10.6027 1.18399 10.6661 1.11862 10.7431 1.07309C10.8202 1.02756 10.908 1.00354 10.9975 1.00354C11.087 1.00354 11.1748 1.02756 11.2519 1.07309C11.3289 1.11862 11.3923 1.18399 11.4355 1.26238L14.3875 6.86638C14.4579 6.99615 14.5561 7.10871 14.6752 7.196C14.7943 7.28329 14.9312 7.34314 15.0761 7.37124C15.221 7.39935 15.3704 7.39502 15.5134 7.35856C15.6565 7.3221 15.7897 7.25443 15.9035 7.16038L20.1805 3.49638C20.2626 3.42961 20.3638 3.3906 20.4695 3.38499C20.5751 3.37937 20.6799 3.40743 20.7686 3.46513C20.8573 3.52283 20.9254 3.60719 20.9632 3.70607C21.0009 3.80496 21.0062 3.91326 20.9785 4.01538L18.1445 14.2614C18.0866 14.4711 17.962 14.6561 17.7895 14.7886C17.617 14.9211 17.406 14.9936 17.1885 14.9954H4.80749C4.58983 14.9939 4.3786 14.9214 4.20589 14.7889C4.03317 14.6564 3.90839 14.4712 3.85049 14.2614L1.01749 4.01638C0.989745 3.91426 0.995116 3.80596 1.03284 3.70707C1.07055 3.60819 1.13868 3.52383 1.2274 3.46613C1.31611 3.40843 1.42085 3.38037 1.52653 3.38599C1.63222 3.3916 1.73339 3.43061 1.81549 3.49738L6.09149 7.16138C6.20529 7.25543 6.3385 7.3231 6.48156 7.35956C6.62461 7.39602 6.77397 7.40035 6.91889 7.37224C7.06382 7.34414 7.20073 7.28429 7.31979 7.197C7.43884 7.10971 7.5371 6.99715 7.60749 6.86738L10.5595 1.26238Z" stroke="black" stroke-opacity="0.05" stroke-linecap="round" stroke-linejoin="round"/>
</svg>
