<svg width="21" height="22" viewBox="0 0 21 22" fill="none" xmlns="http://www.w3.org/2000/svg">
  <path
    d="M12.6963 5.80114C12.5131 5.98807 12.4105 6.23939 12.4105 6.50114C12.4105 6.76289 12.5131 7.01421 12.6963 7.20114L14.2963 8.80114C14.4832 8.98437 14.7346 9.087 14.9963 9.087C15.2581 9.087 15.5094 8.98437 15.6963 8.80114L19.4663 5.03114C19.9691 6.14233 20.1214 7.38037 19.9028 8.58029C19.6841 9.7802 19.105 10.885 18.2426 11.7474C17.3802 12.6099 16.2754 13.189 15.0755 13.4076C13.8755 13.6262 12.6375 13.474 11.5263 12.9711L4.61632 19.8811C4.21849 20.279 3.67892 20.5025 3.11632 20.5025C2.55371 20.5025 2.01414 20.279 1.61632 19.8811C1.21849 19.4833 0.994995 18.9437 0.994995 18.3811C0.994995 17.8185 1.21849 17.279 1.61632 16.8811L8.52632 9.97114C8.02348 8.85995 7.87123 7.62191 8.08986 6.42199C8.30848 5.22208 8.8876 4.11729 9.75004 3.25486C10.6125 2.39243 11.7173 1.81331 12.9172 1.59468C14.1171 1.37606 15.3551 1.5283 16.4663 2.03114L12.6963 5.80114Z"
    fill="#475AFF" stroke="#475AFF" stroke-width="2" stroke-linecap="round" stroke-linejoin="round" />
</svg>